<?xml version="1.0" standalone="no"?> 
<!DOCTYPE svg PUBLIC "-//W3C//DTD SVG 1.1//EN" "http://www.w3.org/Graphics/SVG/1.1/DTD/svg11.dtd" >
<svg xmlns="http://www.w3.org/2000/svg">
<defs>
  <font id="iconfonts" horiz-adv-x="1000">
    <font-face font-family="iconfonts"
      units-per-em="1000" ascent="1000"
      descent="0" />
    <missing-glyph horiz-adv-x="0" />
    <glyph glyph-name="account"
      unicode="&#xF101;"
      horiz-adv-x="1000" d=" M498 954.7C249.6 954.7 48 753.1 48 504.7S249.6 54.7 498 54.7S948 256.3000000000001 948 504.7S746.4 954.7 498 954.7zM498 819.7C572.7 819.7 633 759.4 633 684.7S572.7 549.7 498 549.7S363 610 363 684.7S423.3 819.7 498 819.7zM498 180.7000000000001C385.5 180.7000000000001 286 238.3000000000001 228 325.6C229.4 415.1 408 464.2 498 464.2C587.5 464.2 766.6 415.2000000000001 768 325.6C709.9 238.3 610.5 180.7000000000001 498 180.7000000000001z" />
    <glyph glyph-name="add"
      unicode="&#xF102;"
      horiz-adv-x="1000" d=" M496 959.5C247.6 959.5 46 757.9 46 509.5S247.6 59.5 496 59.5S946 261.1 946 509.5S744.4 959.5 496 959.5zM721 464.5H541V284.5H451V464.5H271V554.5H451V734.5H541V554.5H721V464.5z" />
    <glyph glyph-name="attach"
      unicode="&#xF103;"
      horiz-adv-x="1000" d=" M663.1 744.3V274.6C663.1 184.3000000000001 590 111.2000000000001 499.7 111.2000000000001S336.3000000000001 184.3000000000001 336.3000000000001 274.6V785.2C336.3000000000001 841.6 382.0000000000001 887.3 438.4000000000001 887.3S540.5000000000001 841.5999999999999 540.5000000000001 785.2V356.3C540.5000000000001 333.8 522.1000000000001 315.5 499.7000000000001 315.5C477.2000000000001 315.5 458.9000000000001 333.9 458.9000000000001 356.3V744.3H397.6000000000001V356.3C397.6000000000001 299.9 443.3000000000001 254.2 499.7 254.2S601.8000000000001 299.9 601.8000000000001 356.3V785.2C601.8000000000001 875.5 528.7 948.6 438.4000000000001 948.6S275.0000000000001 875.5 275.0000000000001 785.2V274.5999999999999C275.0000000000001 150.3999999999999 375.5000000000001 49.9999999999999 499.6000000000001 49.9999999999999S724.2000000000002 150.4999999999999 724.2000000000002 274.5999999999999V744.3H663.1z" />
    <glyph glyph-name="book"
      unicode="&#xF104;"
      horiz-adv-x="1000" d=" M837.5 800C795.9 813.1 750.1 818.8 706.3 818.8C633.1999999999999 818.8 554.4 803.8 500.1 762.6C445.7 803.8 367 818.8 293.9 818.8S142 803.8 87.7 762.6V213.2000000000001C87.7 203.8000000000001 97.1 194.4000000000001 106.5 194.4000000000001C110.3 194.4000000000001 112.1 196.3000000000001 115.9 196.3000000000001C166.5 220.7000000000001 239.7 237.5000000000001 294 237.5000000000001C367.1 237.5000000000001 445.9 222.5000000000001 500.2 181.3000000000001C550.8 213.2000000000001 642.7 237.5000000000001 706.4 237.5000000000001C768.3 237.5000000000001 832 226.3000000000001 884.5 198.1000000000001C888.3 196.2000000000002 890.1 196.2000000000002 893.9 196.2000000000002C903.3 196.2000000000002 912.7 205.6000000000001 912.7 215.0000000000001V762.5C890 779.4 865.6 790.6 837.5 800zM837.5 293.8C796.3 306.9 751.3 312.5999999999999 706.3 312.5999999999999C642.5 312.5999999999999 550.6999999999999 288.2 500.1 256.3999999999999V687.5C550.6999999999999 719.4 642.5999999999999 743.7 706.3 743.7C751.3 743.7 796.3 738.0999999999999 837.5 724.9V293.8z" />
    <glyph glyph-name="camera"
      unicode="&#xF105;"
      horiz-adv-x="1000" d=" M364 906L281.6 816H139C89.5 816 49 775.5 49 726V186C49 136.5 89.5 96 139 96H859C908.5 96 949 136.5 949 186V726C949 775.5 908.5 816 859 816H716.3L634 906H364zM499 231C374.8 231 274 331.8 274 456S374.8 681 499 681S724 580.2 724 456S623.2 231 499 231zM499 317.1C422.3 317.1 360.1 379.3000000000001 360.1 456S422.3 594.9 499 594.9S637.9 532.7 637.9 456S575.7 317.1 499 317.1z" />
    <glyph glyph-name="chevron-double-up"
      unicode="&#xF106;"
      horiz-adv-x="1000" d=" M216.5 286.6L283.1 220L499.9 436.4L716.8 220L783.4 286.6L500 570L216.5 286.6z M216.5 496.6L283.1 430L499.9 646.4L716.8 430L783.4 496.6L500 780L216.5 496.6z" />
    <glyph glyph-name="chevron-down"
      unicode="&#xF107;"
      horiz-adv-x="1000" d=" M783.5 609.3L716.9 675.9L500.1 459.5L283.2 675.9L216.6 609.3L500 325.9L783.5 609.3z" />
    <glyph glyph-name="chevron-left"
      unicode="&#xF108;"
      horiz-adv-x="1000" d=" M608.4 217.4L675 284L458.6 500.8L675 717.7L608.4 784.3L325 500.9L608.4 217.4z" />
    <glyph glyph-name="chevron-right"
      unicode="&#xF109;"
      horiz-adv-x="1000" d=" M391.6 784.4L325 717.8L541.4 501L325 284.1L391.6 217.5L675 500.9L391.6 784.4z" />
    <glyph glyph-name="chevron-up"
      unicode="&#xF10A;"
      horiz-adv-x="1000" d=" M216.5 392.5L283.1 325.9L499.9 542.3L716.8000000000001 325.9L783.4000000000001 392.5L500 675.9L216.5 392.5z" />
    <glyph glyph-name="circle-left"
      unicode="&#xF10B;"
      horiz-adv-x="1000" d=" M500 50C748.5 50 950 251.5 950 500S748.5 950 500 950S50 748.5 50 500S251.5 50 500 50zM551 785.7L602.7 734L368.7000000000001 500L602.7 266L551 214.3L265.3 500L551 785.7z" />
    <glyph glyph-name="circle-right"
      unicode="&#xF10C;"
      horiz-adv-x="1000" d=" M500 950C251.472 950 50 748.528 50 500S251.472 50 500 50S950 251.472 950 500S748.528 950 500 950zM448.978 214.28L397.273 265.9890000000001L631.285 500L397.272 734.0129999999999L448.979 785.72L734.699 500L448.978 214.28z" />
    <glyph glyph-name="close"
      unicode="&#xF10D;"
      horiz-adv-x="1000" d=" M949 860.4L858.4 951L499 591.6L139.6 951L49 860.4L408.4 501L49 141.6L139.6 51L499 410.4L858.4 51L949 141.6L589.6 501L949 860.4z" />
    <glyph glyph-name="close_o"
      unicode="&#xF10E;"
      horiz-adv-x="1000" d=" M500 948.5C251.5 948.5 50 747 50 498.5S251.5 48.5 500 48.5S950 250 950 498.5S748.5 948.5 500 948.5zM636.4 303L505 434.3L373.7 303L308 368.6L439.4 500L308 631.4L373.7 697.0999999999999L505 565.7L636.4 697L702.1 631.3L570.7 500L702.1 368.6L636.4 303z" />
    <glyph glyph-name="crop"
      unicode="&#xF10F;"
      horiz-adv-x="1000" d=" M703.5 378.3H785.3V705.5C785.3 750.5 748.5 787.3 703.5 787.3H376.3V705.5H703.6V378.3zM294.5 296.5V951H212.7V787.4H49V705.6H212.6V296.5C212.6 251.5 249.4 214.7000000000001 294.4 214.7000000000001H703.5V51H785.3V214.6H949V296.4H294.5z" />
    <glyph glyph-name="cut"
      unicode="&#xF110;"
      horiz-adv-x="1000" d=" M392.8 697.2C403.1 719.7 409 744.4 409 771C409 870.4 328.5 951 229 951S49 870.4 49 771S129.6 591 229 591C255.6 591 280.3 596.9 302.8 607.2L409 501L302.8 394.8C280.3 405.2000000000001 255.6 411 229 411C129.6 411 49 330.5 49 231S129.6 51 229 51S409 131.6 409 231C409 257.5 403.1 282.3 392.8 304.8L499 411L814 96H949V141L392.8 697.2zM229 681C179.5 681 139 721 139 771S179.5 861 229 861S319 821 319 771S278.5 681 229 681zM229 141C179.5 141 139 181 139 231S179.5 321 229 321S319 281 319 231S278.5 141 229 141zM499 478.5C486.4 478.5 476.5 488.4 476.5 501S486.4 523.5 499 523.5S521.5 513.6 521.5 501S511.6 478.5 499 478.5zM814 906L544 636L634 546L949 861V906H814z" />
    <glyph glyph-name="delete"
      unicode="&#xF111;"
      horiz-adv-x="1000" d=" M199 151C199 96 244 51 299 51H699C754 51 799 96 799 151V751H199V151zM322 507L392.5 577.5L499 471.5L605 577.5L675.5 507L569.5 401L675.5 295L605 224.5L499 330.5L393 224.5L322.5 295L428.5 401L322 507zM674 901L624 951H374L324 901H149V801H849V901H674z" />
    <glyph glyph-name="down"
      unicode="&#xF112;"
      horiz-adv-x="1000" d=" M50 786L500 213.273L950 786z" />
    <glyph glyph-name="email"
      unicode="&#xF113;"
      horiz-adv-x="1000" d=" M860 860H140C90.5 860 50.4 819.5 50.4 770L50 230C50 180.5 90.5 140 140 140H860C909.5 140 950 180.5 950 230V770C950 819.5 909.5 860 860 860zM860 680L500 455L140 680V770L500 545L860 770V680z" />
    <glyph glyph-name="error"
      unicode="&#xF114;"
      horiz-adv-x="1000" d=" M496 959.5C247.6 959.5 46 757.9 46 509.5S247.6 59.5 496 59.5S946 261.1 946 509.5S744.4 959.5 496 959.5zM541 284.5H451V374.5H541V284.5zM541 464.5H451V734.5H541V464.5z" />
    <glyph glyph-name="event"
      unicode="&#xF115;"
      horiz-adv-x="1000" d=" M702.9 498.3L655.2 546L435.6 326.4L340.2000000000001 421.8L292.5000000000001 374.0999999999999L435.6 231C435.6 231 702.9 498.3 702.9 498.3zM814 861H769V951H679V861H319V951H229V861H184C134 861 94.4 820.5 94.4 771L94 141C94 91.5 134 51 184 51H814C863.5 51 904 91.5 904 141V771C904 820.5 863.5 861 814 861zM814 141H184V636H814V141z" />
    <glyph glyph-name="exit"
      unicode="&#xF116;"
      horiz-adv-x="1000" d=" M681.7 343.8L740.7 284.8L950 494.1L740.7 703.4L681.7 644.4L789.7 536H384.9V452.3H789.7L681.7 343.8zM133.7 117.3H552.3C598.8 117.3 636 155 636 201V368.5H552.3V201H133.7V787H552.3V619.6H636V787.1C636 833.1 598.7 870.8 552.3 870.8H133.7C87.7 870.8 50 833.1 50 787.1V201.1C50 155 87.7 117.3 133.7 117.3z" />
    <glyph glyph-name="eye"
      unicode="&#xF117;"
      horiz-adv-x="1000" d=" M499.8 807.7C295.3 807.7 120.6 680.5 49.8 500.9C120.6 321.3 295.3 194 499.8 194S879 321.2000000000001 949.8 500.8C879 680.4 704.3 807.7 499.8 807.7zM499.8 296.3C386.9 296.3 295.3 387.9 295.3 500.8S386.9 705.3 499.8 705.3S704.3 613.6999999999999 704.3 500.8S612.7 296.3 499.8 296.3zM499.8 623.6C431.9 623.6 377.1 568.8 377.1 500.9S431.9000000000001 378.2000000000001 499.8 378.2000000000001S622.5 433 622.5 500.9S567.7 623.6 499.8 623.6z" />
    <glyph glyph-name="facebook"
      unicode="&#xF118;"
      horiz-adv-x="1000" d=" M844.531 950H155.469C97.461 950 50 902.539 50 844.531V155.4690000000001C50 97.461 97.461 50 155.469 50H523V395H415V534H523V635.0609999999999C523 748.523 578.599 816 706.552 816H812V676H731.83C682.302 676 679 656.45 679 619.95V534H806.433L788.824 395H680V50H844.531C902.539 50 950 97.461 950 155.4690000000001V844.531C950 902.539 902.539 950 844.531 950z" />
    <glyph glyph-name="feedly"
      unicode="&#xF119;"
      horiz-adv-x="1000" d=" M556.132 435.001C513.2909999999999 391.57 470.3099999999999 348.187 427.7249999999999 304.478C415.8119999999999 289.62 394.4369999999999 294.012 377.8259999999999 295.1719999999999C361.6969999999999 305.17 349.0809999999999 320.0849999999999 336.0589999999999 333.666C327.3819999999999 341.611 335.2679999999999 352.242 341.8029999999999 358.3639999999999C384.6999999999999 401.7389999999999 427.5419999999999 445.1209999999999 470.2109999999999 488.718C477.9929999999999 496.4229999999999 485.0009999999999 505.2569999999999 494.4639999999999 511.14C503.9769999999999 515.322 511.0699999999999 505.775 517.4919999999998 500.446C532.1089999999998 485.303 548.7279999999998 472.019 562.0919999999999 455.7769999999999C567.976 448.515 561.355 440.2480000000001 556.132 435.001M563.181 232.334C551.1980000000001 218.6429999999999 538.677 205.2049999999999 524.557 193.7159999999999C511.489 190.4329999999999 497.559 190.9859999999999 484.288 192.7209999999999C471.469 198.9419999999999 462.713 211.0979999999999 452.162 220.4129999999999C444.6490000000001 227.479 432.901 238.094 442.336 248.541C458.261 266.5139999999999 475.321 283.693 492.982 300.07C499.551 305.6919999999999 509.513 303.058 514.9590000000001 297.1049999999999C530.4100000000001 282.6679999999999 545.6120000000001 267.9749999999999 560.537 252.9479999999999C566.393 247.9210000000001 569.69 238.293 563.181 232.334M321.335 407.366C308.945 392.39 286.791 396.02 269.744 398.426C254.607 410.1379999999999 240.713 423.7579999999999 228.438 438.3459999999999C221.334 446.4229999999999 230.201 455.0269999999999 235.671 460.8609999999999C310.909 536.8979999999999 385.862 613.2689999999999 460.958 689.4229999999999C471.046 699.4129999999999 480.164 710.4739999999999 491.535 719.0529999999999C501.347 724.0749999999998 509.099 713.5869999999999 515.749 708.0359999999998C529.908 693.4429999999999 545.904 680.5449999999998 558.923 664.9109999999998C565.629 657.1669999999999 558.484 647.9929999999999 552.759 642.3249999999998C475.551 564.092 398.286 485.857 321.335 407.366M897.815 544.7149999999999C793.596 645.4639999999999 689.349 746.15 585.214 846.928C569.9870000000001 861.396 555.6350000000001 877.935 535.6750000000001 886.079C515.8460000000001 895.111 492.9640000000001 896.173 471.8410000000001 891.426C453.3580000000001 886.994 436.7480000000001 876.726 423.5240000000001 863.308C309.166 747.183 194.787 631.046 80.38 514.956C67.212 501.616 57.007 485.0210000000001 52.986 466.6660000000001C43.885 433.5940000000001 56.265 396.7990000000001 80.94 373.3680000000001C163.553 293.499 246.249 213.7230000000001 328.834 133.798C347.2850000000001 115.607 373.123 105.201 399.1910000000001 105.824C465.9640000000001 106.2589999999999 532.6990000000001 107.5219999999999 599.442 108.062C629.503 106.54 659.746 117.552 680.7470000000001 139.125C753.817 213.0750000000001 826.6580000000001 287.303 899.6990000000001 361.309C911.588 373.544 924.498 385.045 934.141 399.207C951.825 425.113 954.3800000000002 459.779 943.503 488.758C935.01 512.044 915.068 527.9300000000001 897.815 544.7149999999999" />
    <glyph glyph-name="file"
      unicode="&#xF11A;"
      horiz-adv-x="1000" d=" M589.8 950.9H139.8V50.9H859.8V681L589.8 950.9zM792.3 116.1H207.3V885.8H477.3V570.8H792.3V116.1zM544.8 636V883.4L792.3 636H544.8z" />
    <glyph glyph-name="folder"
      unicode="&#xF11B;"
      horiz-adv-x="1000" d=" M859 771H499L409 861H139C89.5 861 49.4 820.5 49.4 771L49 231C49 181.5 89.5 141 139 141H859C908.5 141 949 181.5 949 231V681C949 730.5 908.5 771 859 771zM859 231H139V681H859V231z" />
    <glyph glyph-name="hamburger"
      unicode="&#xF11C;"
      horiz-adv-x="1000" d=" M50 74.5H950V174.5H50V74.5zM50 449.5H950V549.5H50V449.5zM50 924.5V824.5H950V924.5H50z" />
    <glyph glyph-name="hatebu"
      unicode="&#xF11D;"
      horiz-adv-x="1000" d=" M593.354 473.261C563.4240000000001 506.712 521.831 525.4179999999999 468.5740000000001 529.3789999999999C516.109 542.2529999999999 550.44 561.069 572.2270000000001 586.487S604.5770000000001 645.246 604.5770000000001 687.829C605.1220000000001 719.025 597.6190000000001 749.836 582.7900000000001 777.288C567.7900000000001 803.2549999999999 545.84 824.519 519.4100000000001 838.688C495.3120000000001 851.8919999999999 466.5930000000001 861.4649999999999 432.9220000000001 867.077C399.2510000000001 872.689 340.1620000000001 875 255.6550000000001 875H50V125H261.928C347.0950000000001 125 408.495 127.861 446.127 133.583C483.759 139.525 515.119 149.428 540.537 162.962C571.119 178.803 596.287 203.3969999999999 612.83 233.605C629.6650000000001 263.975 638.248 299.2960000000001 638.248 339.569C638.248 395.357 623.393 439.9210000000001 593.354 473.261zM240 709H283.75C334.408 709 368.399 703.298 385.724 691.895C403.158 680.3820000000001 411.711 660.645 411.711 632.684S402.1720000000001 586.631 383.75 575.4469999999999C365.329 564.2629999999999 330.79 559 280.461 559H240L240 709L240 709zM413.867 279.111C393.78 266.927 359.533 261 311.457 261H240V424H314.42C363.814 424 398.06 417.7430000000001 416.1710000000001 405.23C434.2820000000001 392.717 443.8320000000001 370.9840000000001 443.8320000000001 339.371C443.8320000000001 307.759 433.9530000000001 290.9650000000001 413.5370000000001 278.781L413.867 279.111z M854.985 315.084C802.51 315.084 759.97 272.545 759.97 220.069C759.97 167.5939999999999 802.509 125.054 854.985 125.054C907.46 125.054 950 167.593 950 220.069V220.069C950 272.545 907.461 315.084 854.985 315.084z M772 875H937V375H772V875z" />
    <glyph glyph-name="home"
      unicode="&#xF11E;"
      horiz-adv-x="1000" d=" M950 484L812 484L812 50L604 50L604 339L396 339L396 50L188 50L188 484L50 484L504.154 949.916L950 484" />
    <glyph glyph-name="key"
      unicode="&#xF11F;"
      horiz-adv-x="1000" d=" M526.6 581.8C493 677.1 402.2 745.5 295.5 745.5C160 745.5 50 635.4 50 500S160 254.5 295.5 254.5C402.3 254.5 493.1 322.8 526.6 418.1H704.6V254.5H868.2V418.2000000000001H950V581.8H526.6zM295.5 418.2000000000001C250.5 418.2000000000001 213.7 455 213.7 500.0000000000001S250.5 581.8000000000001 295.5 581.8000000000001S377.3 545 377.3 500.0000000000001S340.5 418.2000000000001 295.5 418.2000000000001z" />
    <glyph glyph-name="left"
      unicode="&#xF120;"
      horiz-adv-x="1000" d=" M786 50L786 950L213.273 500z" />
    <glyph glyph-name="line-square"
      unicode="&#xF121;"
      horiz-adv-x="1000" d=" M741.847 950H258.153C143.594 950 50 856.406 50 741.847V258.154C50 143.5940000000001 143.594 50 258.153 50H742.595C857.155 50 950 143.5940000000001 950 258.153V741.847C950 856.406 856.406 950 741.847 950zM741.098 359.983C625.042 247.6710000000001 482.03 167.554 473.045 182.529C464.06 197.504 469.301 201.2480000000001 476.789 243.9260000000001C484.2760000000001 286.605 452.08 282.1130000000001 452.08 282.1130000000001C291.0990000000001 298.5850000000001 173.5440000000001 407.1550000000001 173.5440000000001 538.9350000000001C173.5440000000001 681.9470000000001 321.048 798.003 502.9950000000001 798.003S832.4460000000001 681.946 832.4460000000001 538.9350000000001C832.446 469.301 793.511 410.898 741.098 359.983z M327 608V489H379V458H290V608H327z M440 608V457H403V608H440z M497.343 608L562 511.569V608H598V457H559.657L495 553.431V457H459V608H497.343z M718 550.235V520H656V489H726V458H620V608H723V577H656V551H718V550.235z" />
    <glyph glyph-name="line"
      unicode="&#xF122;"
      horiz-adv-x="1000" d=" M950 563.679C950 765.04 748.138 928.858 499.996 928.858C251.887 928.858 50 765.04 50 563.679C50 383.159 210.092 231.9790000000001 426.342 203.391C440.999 200.2339999999999 460.944 193.7289999999999 465.99 181.203C470.519 169.833 468.957 152.002 467.439 140.512C467.439 140.512 462.16 108.766 461.021 101.986C459.063 90.616 451.98 57.49 499.996 77.737C548.028 97.9740000000001 759.154 230.323 853.563 339H853.537C918.763 410.514 950 483.0890000000001 950 563.679zM341 455.747C341 450.9159999999999 337.0830000000001 447 332.253 447H205.771C203.418 447 201.29 447.949 199.707 449.486C199.664 449.53 199.621 449.574 199.577 449.6090000000001C199.525 449.653 199.491 449.706 199.456 449.75C197.942 451.349 196.999 453.519 196.999 455.917V652.244C196.999 657.079 200.919 661 205.755 661H238.243C243.079 661 246.999 657.0799999999999 246.999 652.244V497H332.234C337.075 497 340.999 493.076 340.999 488.235V455.747zM417 455.765C417 450.924 413.076 447 408.235 447H376.747C371.916 447 367.999 450.917 367.999 455.748V652.235C367.999 657.076 371.923 661 376.764 661H408.243C413.079 661 416.999 657.0799999999999 416.999 652.244V455.765zM634 455.765C634 450.925 630.097 447 625.266 447H593.81C593.0279999999999 447 592.28 447.1040000000001 591.5749999999999 447.303C591.5319999999999 447.3110000000001 591.4889999999999 447.3200000000001 591.4459999999999 447.329C591.2479999999999 447.39 591.059 447.45 590.853 447.519C590.7579999999999 447.554 590.689 447.588 590.5949999999999 447.6230000000001C590.4399999999999 447.6750000000001 590.3109999999999 447.7440000000001 590.165 447.7960000000001C590.019 447.865 589.881 447.9340000000001 589.7439999999999 448.004C589.6579999999999 448.0470000000001 589.5899999999999 448.0900000000001 589.5039999999999 448.1420000000001C589.3149999999999 448.2460000000001 589.1429999999999 448.3580000000001 588.9619999999999 448.471C588.9269999999999 448.497 588.9019999999999 448.514 588.8759999999999 448.54C588.0329999999999 449.11 587.2689999999999 449.828 586.6579999999999 450.7009999999999L497 572.4449999999999V455.764C497 450.924 493.088 446.999 488.257 446.999H456.734C451.911 446.999 448 450.923 448 455.764V652.227C448 657.067 451.911 661 456.734 661H488.188C488.291 661 488.386 660.983 488.489 660.983C488.6439999999999 660.9739999999999 488.799 660.9739999999999 488.945 660.957C489.1 660.94 489.255 660.931 489.409 660.8969999999999C489.521 660.8879999999999 489.65 660.871 489.77 660.845C489.942 660.819 490.105 660.776 490.277 660.733C490.38 660.7069999999999 490.484 660.6809999999999 490.578 660.655C490.759 660.612 490.922 660.5509999999999 491.094 660.482C491.197 660.4559999999999 491.274 660.421 491.377 660.387C491.558 660.318 491.721 660.249 491.884 660.1709999999999C491.97 660.1279999999999 492.065 660.0849999999999 492.159 660.0409999999999C492.313 659.9549999999999 492.468 659.8679999999999 492.623 659.7729999999999C492.718 659.73 492.804 659.6779999999999 492.881 659.6179999999999C493.0359999999999 659.5229999999999 493.191 659.41 493.337 659.306C493.415 659.245 493.492 659.194 493.561 659.124C493.733 659.0029999999999 493.888 658.865 494.034 658.7349999999999C494.095 658.683 494.138 658.6399999999999 494.198 658.588C494.37 658.415 494.551 658.2339999999999 494.722 658.044C494.73 658.0260000000001 494.757 658.009 494.782 657.983C495.014 657.706 495.255 657.412 495.452 657.0930000000001L585 535.511V652.227C585 657.067 588.903 661 593.734 661H625.265C630.097 661 633.999 657.067 633.999 652.227V455.765zM809 620.756C809 615.921 805.08 612 800.244 612H714V579H800.227C805.072 579 809 575.072 809 570.227V537.756C809 532.921 805.08 529 800.244 529H714V496H800.235C805.076 496 809 492.076 809 487.235V455.764C809 450.923 805.076 446.999 800.235 446.999H673.771C671.41 446.999 669.2729999999999 447.933 667.457 449.7050000000001C665.943 451.269 665 453.404 665 455.782V652.227C665 654.569 665.934 656.6959999999999 667.681 658.519C669.264 660.058 671.4000000000001 660.999 673.788 660.999H800.244C805.08 660.999 809 657.079 809 652.2429999999999V620.756z" />
    <glyph glyph-name="lock-open"
      unicode="&#xF123;"
      horiz-adv-x="1000" d=" M500 266.9C547.1 266.9 585.7 305.5 585.7 352.6C585.7 399.7000000000001 547.1 438.3000000000001 500.0000000000001 438.3000000000001S414.3000000000001 399.7000000000001 414.3000000000001 352.6C414.3 305.5 452.9 266.9 500 266.9zM757.1 652.6H714.2V738.3C714.2 856.6 618.2 952.6 499.9 952.6S285.6 856.6 285.6 738.3H367C367 811.6 426.6 871.2 499.9 871.2S632.8 811.6 632.8 738.3V652.6H242.8C195.7 652.6 157.1 614 157.1 566.9000000000001V138.3C157.1 91.1999999999999 195.7 52.5999999999999 242.8 52.5999999999999H757.0999999999999C804.1999999999999 52.5999999999999 842.8 91.1999999999999 842.8 138.3V566.9C842.9 614 804.3 652.6 757.1 652.6zM757.1 138.3H242.9V566.9H757.1999999999999V138.3z" />
    <glyph glyph-name="phone"
      unicode="&#xF124;"
      horiz-adv-x="1000" d=" M231 560.5C303 419 419 303.5 560.5 231L670.5 341C684 354.5 704 359 721.5 353C777.5 334.5 838 324.5 900 324.5C927.5 324.5 950 302 950 274.5V100C950 72.5 927.5 50 900 50C430.5 50 50 430.5 50 900C50 927.5 72.5 950 100 950H275C302.5 950 325 927.5 325 900C325 837.5 335 777.5 353.5 721.5C359 704 355 684.5 341 670.5L231 560.5z" />
    <glyph glyph-name="photo"
      unicode="&#xF125;"
      horiz-adv-x="1000" d=" M949 151V851C949 906 904 951 849 951H149C94 951 49 906 49 851V151C49 96 94 51 149 51H849C904 51 949 96 949 151zM324 426L449 275.5L624 501L849 201H149L324 426z" />
    <glyph glyph-name="restore"
      unicode="&#xF126;"
      horiz-adv-x="1000" d=" M564.3 885.7C351.3 885.7 178.6 713 178.6 500H50L216.7 333.3L219.7 327.3L392.9 500H264.3C264.3 665.9 398.4 800 564.3 800S864.3 665.9 864.3 500S730.1999999999999 200 564.3 200C481.6 200 406.6 233.9 352.6 288.3L291.7 227.4C361.6 157.5 457.6 114.3 564.3 114.3C777.3 114.3 950 287 950 500S777.3 885.7 564.3 885.7zM521.4 671.4V457.0999999999999L704.8 348.2L735.6999999999999 400.0999999999999L585.6999999999999 489.1999999999999V671.4H521.4z" />
    <glyph glyph-name="right"
      unicode="&#xF127;"
      horiz-adv-x="1000" d=" M214 950L214 50L786.727 500z" />
    <glyph glyph-name="search"
      unicode="&#xF128;"
      horiz-adv-x="1000" d=" M950 130.8L727.9 352.9C775 415.8 802.9 493.8 802.9 578.4C802.9 786.3 634.4 954.8 426.5 954.8S50 786.3 50 578.4S218.5 202 426.4 202C512.4 202 591.5999999999999 230.8 655 279.3L876.8 57.5L950 130.8zM152.9 578.4C152.9 729.5 275.4 851.9 426.4 851.9S699.9 729.4 699.9 578.4S577.6 304.9 426.4 304.9S152.9 427.3 152.9 578.4z" />
    <glyph glyph-name="send"
      unicode="&#xF129;"
      horiz-adv-x="1000" d=" M50.4 114.3L950 500L50.4 885.7L50 585.7L692.9 500L50 414.3L50.4 114.3z" />
    <glyph glyph-name="success"
      unicode="&#xF12A;"
      horiz-adv-x="1000" d=" M496 959.5C247.6 959.5 46 757.9 46 509.5S247.6 59.5 496 59.5S946 261.1 946 509.5S744.4 959.5 496 959.5zM421 315.1L226 510.1L289.4 573.5L421 442.4L702.5 703.9L766 640L421 315.1z" />
    <glyph glyph-name="time"
      unicode="&#xF12B;"
      horiz-adv-x="1000" d=" M500 725.1L500 500.1L350 500.1L350 425.1L500 425.1L575 425.1L575 500.1L575 725.1z M500 950C251.5 950 50 748.5 50 500S251.5 50 500 50S950 251.5 950 500S748.5 950 500 950zM499.9 129.8C296.4 129.8 131.4 296.3 131.4 501.8S296.4 873.8 499.9 873.8S868.4 707.3 868.4 501.8S703.4 129.8 499.9 129.8z" />
    <glyph glyph-name="twitter-square"
      unicode="&#xF12C;"
      horiz-adv-x="1000" d=" M837.5 950H162.5C100.625 950 50 899.375 50 837.5V162.5C50 100.625 100.625 50 162.5 50H837.5C899.375 50 950 100.625 950 162.5V837.5C950 899.375 899.375 950 837.5 950zM723.643 624.716C723.94 619.488 724.072 614.188 724.138 608.8520000000001C726.1320000000001 446.697 611.465 258.283 397.4360000000001 255.6500000000001C331.73 254.8420000000001 270.3330000000001 274.4170000000002 218.412 308.5730000000001C227.5130000000001 307.5260000000001 236.8070000000001 307.1140000000002 246.1930000000001 307.2290000000001C300.682 307.899 350.6030000000001 328.105 390.0410000000001 361.5250000000001C339.1020000000001 361.8460000000001 295.6930000000001 396.8450000000002 280.3140000000001 445.3910000000001C287.3880000000001 444.0380000000001 294.7200000000001 443.3910000000001 302.2090000000001 443.4830000000001C312.8610000000001 443.6140000000001 323.0950000000001 445.1790000000001 332.8460000000001 448.1790000000001C279.4170000000001 458.7570000000001 238.7310000000001 507.8690000000001 237.9990000000001 567.339L237.9800000000001 568.8480000000001C253.8030000000001 559.914 271.8130000000001 554.5530000000001 290.8940000000001 554.1550000000001C259.4000000000001 575.8180000000001 238.4010000000001 613.1290000000001 237.8780000000001 655.6770000000001C237.6020000000001 678.1450000000001 243.0680000000001 699.279 252.8630000000001 717.5870000000001C311.1950000000001 644.0090000000001 397.5070000000001 596.2660000000001 494.2320000000001 592.3290000000002C492.1250000000001 601.2570000000001 491.0440000000001 610.6180000000002 490.9260000000001 620.2370000000001C490.0930000000001 687.9920000000002 541.4760000000001 743.5730000000001 605.7180000000001 744.3630000000002C639.2040000000001 744.7750000000001 669.6440000000001 730.2620000000002 691.1070000000001 706.6500000000001C717.5680000000001 712.4880000000002 742.3070000000001 722.9750000000001 764.6360000000001 737.3290000000002C756.3340000000001 708.5760000000001 738.1890000000001 684.3010000000002 714.3430000000001 668.8400000000001C737.807 672.0780000000002 760.1600000000001 678.9540000000002 780.9110000000001 688.9700000000001C765.67 664.172 746.164 642.303 723.643 624.716z" />
    <glyph glyph-name="twitter"
      unicode="&#xF12D;"
      horiz-adv-x="1000" d=" M844.155 764.212C882.2959999999999 788.329 911.545 826.5419999999999 925.248 872.044C889.536 849.6569999999999 850.0659999999999 833.456 807.9469999999999 824.6659999999999C774.2959999999999 862.544 726.2279999999998 886.139 673.0539999999999 886.092C571.0399999999998 886.001 488.4489999999998 798.683 488.5439999999999 691.0899999999999C488.5579999999999 675.815 490.1029999999999 660.932 493.2879999999999 646.719C339.7839999999999 654.722 203.6079999999999 732.0899999999999 112.3249999999999 849.971C96.4399999999999 821.08 87.3789999999999 787.623 87.4099999999999 751.9449999999999C87.4699999999999 684.379 120.1359999999999 624.758 169.7469999999999 589.792C139.4589999999999 590.769 110.9609999999999 599.607 85.9999999999999 614.079L86.0019999999999 611.682C86.0859999999999 517.246 149.7959999999999 438.531 234.4359999999999 420.7670000000001C218.8999999999999 416.182 202.6219999999999 413.8820000000001 185.7079999999999 413.8670000000001C173.8159999999999 413.8560000000001 162.1859999999999 415.0170000000001 150.9779999999999 417.2920000000001C174.5149999999999 339.9350000000001 242.8039999999999 283.5790000000001 323.676 282.1460000000001C260.4529999999999 229.7990000000001 180.8239999999999 198.6210000000001 94.298 198.5440000000001C79.3919999999999 198.5310000000001 64.644 199.3540000000001 50.2129999999999 201.1810000000001C132.032 146.0080000000001 229.159 113.816 333.499 113.909C673.3699999999999 114.211 858.847 411.2870000000001 858.6179999999999 668.785C858.6099999999999 677.259 858.497 685.6769999999999 858.1199999999999 693.983C894.1969999999999 721.499 925.5629999999998 755.867 950.2129999999999 794.968C917.085 779.44 881.468 768.928 844.155 764.212z" />
    <glyph glyph-name="up"
      unicode="&#xF12E;"
      horiz-adv-x="1000" d=" M50 214L950 214L500 786.727z" />
    <glyph glyph-name="video"
      unicode="&#xF12F;"
      horiz-adv-x="1000" d=" M868.2 868.2H131.8C86.4 868.2 50 831.8 50 786.4V295.5C50 250.5 86.4 213.7000000000001 131.8 213.7000000000001H336.3V131.9000000000001H663.6V213.7000000000001H868.1C913.1 213.7000000000001 949.5 250.5 949.5 295.5L949.9 786.4C950 831.8 913.2 868.2 868.2 868.2zM868.2 295.5H131.8V786.4H868.2V295.5zM663.6 540.9L377.3 377.3V704.5L663.6 540.9z" />
    <glyph glyph-name="warning"
      unicode="&#xF130;"
      horiz-adv-x="1000" d=" M50 113.6H950L500 890.9L50 113.6zM540.9 236.3H459.1V318.0999999999999H540.9V236.3zM540.9 400H459.1V563.6H540.9V400z" />
  </font>
</defs>
</svg>
